<?xml version="1.0" encoding="utf-8"?>
<!-- Generator: Adobe Illustrator 24.3.0, SVG Export Plug-In . SVG Version: 6.00 Build 0)  -->
<svg version="1.1" id="Layer_1" xmlns="http://www.w3.org/2000/svg" xmlns:xlink="http://www.w3.org/1999/xlink" x="0px" y="0px"
	 viewBox="0 0 228.9 52.89" style="enable-background:new 0 0 228.9 52.89;" xml:space="preserve">
<style type="text/css">
	.st0{fill:url(#SVGID_1_);}
	.st1{fill:url(#SVGID_2_);}
	.st2{fill:url(#SVGID_3_);}
	.st3{fill:url(#SVGID_4_);}
	.st4{fill:url(#SVGID_5_);}
</style>
<g>
	<g>
		<linearGradient id="SVGID_1_" gradientUnits="userSpaceOnUse" x1="15.3906" y1="22.582" x2="51.9433" y2="22.582">
			<stop  offset="0.0492" style="stop-color:#9FCB80"/>
			<stop  offset="0.5" style="stop-color:#3CB5A1"/>
			<stop  offset="1" style="stop-color:#1CA49D"/>
		</linearGradient>
		<path class="st0" d="M15.39,4.33l7.7,0l28.86,28.77c0,5.16,0,5.16,0,7.74L15.39,4.33z"/>
		<linearGradient id="SVGID_2_" gradientUnits="userSpaceOnUse" x1="3.8477" y1="34.146" x2="40.3281" y2="34.146">
			<stop  offset="0" style="stop-color:#9FCB80"/>
			<stop  offset="0.5" style="stop-color:#3CB5A1"/>
			<stop  offset="1" style="stop-color:#1CA49D"/>
		</linearGradient>
		<path class="st1" d="M3.85,23.56v-7.7l36.48,36.55c-3.77,0-3.77,0-7.62,0L3.85,23.56z"/>
		<linearGradient id="SVGID_3_" gradientUnits="userSpaceOnUse" x1="34.6289" y1="16.8297" x2="51.9433" y2="16.8297">
			<stop  offset="0.0281" style="stop-color:#9FCB80"/>
			<stop  offset="0.5" style="stop-color:#3CB5A1"/>
			<stop  offset="1" style="stop-color:#1CA49D"/>
		</linearGradient>
		<path class="st2" d="M51.94,25.49L34.63,8.17l7.7,0l9.62,9.62C51.94,17.79,51.94,24.33,51.94,25.49z"/>
		<linearGradient id="SVGID_4_" gradientUnits="userSpaceOnUse" x1="7.6953" y1="43.7651" x2="24.9908" y2="43.7651">
			<stop  offset="0.5" style="stop-color:#3CB5A1"/>
			<stop  offset="1" style="stop-color:#1CA49D"/>
		</linearGradient>
		<path class="st3" d="M7.7,42.8l0-7.7l17.3,17.31c-3.03-0.06-7.68,0-7.68,0L7.7,42.8z"/>
		<linearGradient id="SVGID_5_" gradientUnits="userSpaceOnUse" x1="0" y1="26.4621" x2="51.9433" y2="26.4621">
			<stop  offset="0.0894" style="stop-color:#9FCB80"/>
			<stop  offset="0.5" style="stop-color:#3CB5A1"/>
			<stop  offset="1" style="stop-color:#1CA49D"/>
		</linearGradient>
		<path class="st4" d="M3.85,0.48l48.1,48.06v3.89c-1.15,0.05-1.37,0-3.9,0L0,4.33l0-3.85H3.85z"/>
	</g>
	<path d="M76.09,21.78c-1.19,1.15-3.03,1.72-5.54,1.72c-1.81,0-3.22-0.28-4.25-0.83c-1.03-0.55-1.79-1.34-2.3-2.36
		c-0.51-1.02-0.82-2.25-0.93-3.69c-0.11-1.44-0.17-3.05-0.17-4.85c0-1.63,0.05-3.15,0.15-4.58s0.41-2.68,0.91-3.74
		s1.29-1.9,2.35-2.52C67.38,0.31,68.86,0,70.76,0c2.48,0,4.26,0.55,5.32,1.66c1.06,1.11,1.59,2.73,1.59,4.88v0.5h-3.76V6.63
		c0-0.48-0.04-0.96-0.12-1.43c-0.08-0.47-0.23-0.9-0.46-1.28c-0.23-0.38-0.55-0.69-0.98-0.93c-0.43-0.24-0.99-0.36-1.69-0.36
		c-0.93,0-1.65,0.21-2.17,0.63s-0.91,1.02-1.17,1.8c-0.26,0.78-0.42,1.72-0.47,2.82c-0.06,1.1-0.08,2.31-0.08,3.65
		c0,1.63,0.03,3.03,0.1,4.2c0.07,1.17,0.23,2.14,0.47,2.9c0.25,0.76,0.62,1.33,1.12,1.69c0.5,0.37,1.19,0.55,2.07,0.55
		c0.77,0,1.39-0.13,1.86-0.38c0.47-0.25,0.84-0.58,1.08-1c0.25-0.42,0.41-0.89,0.49-1.42c0.08-0.53,0.12-1.08,0.12-1.64v-0.5h3.79
		v0.59C77.87,18.88,77.28,20.63,76.09,21.78z"/>
	<path d="M110.66,23.06c-0.09-0.48-0.16-0.97-0.2-1.47c-0.05-0.5-0.07-1.01-0.07-1.53c0-0.96-0.03-1.93-0.1-2.91
		c-0.05-0.79-0.11-1.46-0.2-1.99c-0.09-0.53-0.26-0.96-0.51-1.28c-0.25-0.32-0.62-0.55-1.1-0.69c-0.49-0.14-1.16-0.2-2.02-0.2h-2.27
		v10.08h-3.79V0.44h7.15c1.06,0,2.02,0.08,2.88,0.24c0.86,0.16,1.59,0.45,2.2,0.88c0.61,0.43,1.08,1.01,1.41,1.76
		s0.49,1.7,0.49,2.87c0,0.69-0.06,1.33-0.19,1.93c-0.12,0.6-0.34,1.13-0.64,1.6c-0.3,0.47-0.72,0.87-1.24,1.21
		c-0.52,0.34-1.17,0.59-1.97,0.75c0.75,0.06,1.34,0.2,1.8,0.41c0.45,0.21,0.81,0.51,1.07,0.89c0.26,0.39,0.44,0.86,0.54,1.44
		c0.1,0.57,0.18,1.23,0.22,1.98c0.02,0.48,0.03,0.98,0.03,1.5c0,0.52,0.02,1.06,0.07,1.62c0.02,0.42,0.05,0.82,0.08,1.22
		c0.03,0.4,0.07,0.77,0.12,1.12c0.02,0.21,0.05,0.41,0.08,0.61s0.07,0.4,0.12,0.61H110.66z M110.63,6.44c0-1.26-0.31-2.14-0.93-2.64
		c-0.62-0.49-1.57-0.74-2.86-0.74h-2.64v7.29h2.03c0.81,0,1.5-0.06,2.07-0.17c0.57-0.12,1.02-0.32,1.36-0.62
		c0.34-0.3,0.59-0.69,0.74-1.2C110.55,7.86,110.63,7.22,110.63,6.44z"/>
	<path d="M92.26,52.45c-0.09-0.48-0.16-0.97-0.2-1.47c-0.05-0.5-0.07-1.01-0.07-1.53c0-0.96-0.03-1.93-0.1-2.91
		c-0.05-0.79-0.11-1.46-0.2-1.99c-0.09-0.53-0.26-0.96-0.51-1.28c-0.25-0.32-0.62-0.55-1.1-0.69c-0.49-0.14-1.16-0.2-2.02-0.2h-2.27
		v10.08H82V29.83h7.15c1.06,0,2.02,0.08,2.88,0.24c0.86,0.16,1.59,0.45,2.2,0.88c0.61,0.43,1.08,1.01,1.41,1.76
		c0.33,0.74,0.49,1.7,0.49,2.87c0,0.69-0.06,1.33-0.19,1.93c-0.12,0.6-0.34,1.13-0.64,1.6c-0.3,0.47-0.72,0.87-1.24,1.21
		c-0.52,0.34-1.17,0.59-1.97,0.75c0.75,0.06,1.34,0.2,1.8,0.41c0.45,0.21,0.81,0.51,1.07,0.89c0.26,0.39,0.44,0.86,0.54,1.44
		c0.1,0.57,0.18,1.23,0.22,1.98c0.02,0.48,0.03,0.98,0.03,1.5s0.02,1.06,0.07,1.62c0.02,0.42,0.05,0.82,0.08,1.22
		c0.03,0.4,0.07,0.77,0.12,1.12c0.02,0.21,0.05,0.41,0.08,0.61c0.03,0.2,0.07,0.4,0.12,0.61H92.26z M92.22,35.84
		c0-1.26-0.31-2.14-0.93-2.64c-0.62-0.49-1.57-0.74-2.86-0.74h-2.64v7.29h2.03c0.81,0,1.5-0.06,2.07-0.17
		c0.57-0.12,1.02-0.32,1.36-0.62c0.34-0.3,0.59-0.69,0.74-1.2C92.14,37.26,92.22,36.61,92.22,35.84z"/>
	<path d="M77.82,46.22c0,1.27-0.19,2.32-0.56,3.13c-0.37,0.81-0.9,1.45-1.59,1.91c-0.69,0.46-1.53,0.77-2.51,0.94
		c-0.98,0.17-2.08,0.25-3.3,0.25h-6.33V29.82h7.22c1.08,0,2.04,0.09,2.86,0.28c0.82,0.19,1.52,0.5,2.08,0.94
		c0.56,0.44,0.99,1.02,1.27,1.74c0.28,0.72,0.42,1.61,0.42,2.68c0,1.38-0.28,2.49-0.85,3.33c-0.57,0.84-1.57,1.44-3.01,1.8
		c0.84,0.17,1.54,0.41,2.1,0.72c0.56,0.31,1,0.7,1.32,1.17c0.32,0.47,0.54,1.02,0.68,1.64C77.75,44.75,77.82,45.45,77.82,46.22z
		 M73.69,35.86c0-0.69-0.1-1.26-0.29-1.7s-0.46-0.8-0.81-1.05s-0.77-0.42-1.26-0.52c-0.49-0.09-1.03-0.14-1.62-0.14h-2.39v6.98h2.39
		c1.37,0,2.38-0.27,3.02-0.8S73.69,37.18,73.69,35.86z M74.06,45.94c0-1.4-0.34-2.41-1.02-3.02C72.37,42.3,71.27,42,69.76,42h-2.44
		v7.82h2.24c0.65,0,1.26-0.05,1.81-0.14c0.55-0.09,1.03-0.28,1.42-0.55c0.4-0.27,0.71-0.66,0.93-1.17
		C73.95,47.45,74.06,46.77,74.06,45.94z"/>
	<path d="M100.4,52.45V29.82h3.79v22.62H100.4z"/>
	<path d="M117.67,32.69l-0.02,19.76h-3.79l0.02-19.76h-5.66l-0.02-2.86h15.11l0.02,2.86H117.67z"/>
	<path d="M154.63,52.45l-6.91-19.56v19.56h-3.39V29.82h5.76L157,49.38V29.82h3.39v22.62H154.63z"/>
	<path d="M175.34,52.45l-6.91-19.56v19.56h-3.39V29.82h5.76l6.91,19.56V29.82h3.39v22.62H175.34z"/>
	<path d="M185.75,52.45V29.82h3.79v22.62H185.75z"/>
	<path d="M206.87,51.16c-1.19,1.15-3.03,1.72-5.54,1.72c-1.81,0-3.22-0.28-4.25-0.83c-1.03-0.55-1.79-1.34-2.3-2.36
		c-0.51-1.02-0.82-2.25-0.93-3.69c-0.11-1.44-0.17-3.06-0.17-4.85c0-1.63,0.05-3.16,0.15-4.58c0.1-1.43,0.41-2.68,0.91-3.74
		c0.51-1.06,1.29-1.9,2.35-2.52c1.06-0.62,2.54-0.92,4.44-0.92c2.48,0,4.26,0.55,5.32,1.66c1.06,1.11,1.59,2.73,1.59,4.88v0.5h-3.76
		v-0.41c0-0.48-0.04-0.96-0.12-1.43c-0.08-0.47-0.23-0.9-0.46-1.28c-0.23-0.38-0.55-0.69-0.98-0.93c-0.43-0.24-0.99-0.36-1.69-0.36
		c-0.93,0-1.65,0.21-2.17,0.63c-0.52,0.42-0.91,1.02-1.17,1.8c-0.26,0.78-0.42,1.72-0.47,2.82c-0.06,1.1-0.08,2.31-0.08,3.65
		c0,1.63,0.03,3.03,0.1,4.2c0.07,1.17,0.23,2.14,0.47,2.9c0.25,0.76,0.62,1.33,1.12,1.69c0.5,0.37,1.19,0.55,2.07,0.55
		c0.77,0,1.39-0.13,1.86-0.38c0.47-0.25,0.84-0.58,1.08-1c0.25-0.42,0.41-0.89,0.49-1.42c0.08-0.53,0.12-1.08,0.12-1.64v-0.5h3.79
		v0.59C208.65,48.27,208.06,50.02,206.87,51.16z"/>
	<polygon points="137.52,52.45 140.9,52.45 134.26,29.82 129.45,29.82 122.81,52.45 126.04,52.45 131.86,32.83 	"/>
	<polygon points="225.52,52.45 228.9,52.45 222.26,29.82 217.45,29.82 210.81,52.45 214.04,52.45 219.85,32.83 	"/>
	<polygon points="94.28,23.06 97.66,23.06 91.02,0.44 86.21,0.44 79.57,23.06 82.79,23.06 88.61,3.44 	"/>
	<polygon points="121.9,10.27 121.92,3.38 130.49,3.38 130.5,0.44 118.11,0.44 118.11,23.06 130.5,23.06 130.5,20.26 121.9,20.26 
		121.9,13.08 130.07,13.08 130.07,10.27 	"/>
</g>
</svg>
