<svg id="Layer_1" data-name="Layer 1" xmlns="http://www.w3.org/2000/svg" xmlns:xlink="http://www.w3.org/1999/xlink" viewBox="0 0 670.22 167.02"><defs><style>.cls-1{fill:#fff;}.cls-2{clip-path:url(#clip-path);}.cls-3{clip-path:url(#clip-path-2);}.cls-4{clip-path:url(#clip-path-3);}.cls-5{clip-path:url(#clip-path-4);}.cls-6{clip-path:url(#clip-path-5);}</style><clipPath id="clip-path"><path class="cls-1" d="M48.38,13.59h24.2L163.29,104v24.35Z"/></clipPath><clipPath id="clip-path-2"><path class="cls-1" d="M12.1,74.07V49.88L126.78,164.79h-24Z"/></clipPath><clipPath id="clip-path-3"><path class="cls-1" d="M163.29,80.1,108.86,25.68h24.19l30.24,30.24Z"/></clipPath><clipPath id="clip-path-4"><path class="cls-1" d="M24.19,134.55v-24.2l54.37,54.44c-9.51-.19-24.13,0-24.13,0Z"/></clipPath><clipPath id="clip-path-5"><path class="cls-1" d="M12.1,1.49,163.29,152.57v12.22c-3.61.16-4.31,0-12.26,0L0,13.59V1.49Z"/></clipPath></defs><path class="cls-1" d="M48.38,13.59h24.2L163.29,104v24.35Z"/><g class="cls-2"><polygon class="cls-1" points="162.57 128.37 163.29 127.63 163.29 128.37 162.57 128.37"/><polygon class="cls-1" points="160.93 128.37 163.29 125.95 163.29 127.63 162.57 128.37 160.93 128.37"/><polygon class="cls-1" points="160.43 128.37 159.85 127.79 163.29 124.27 163.29 125.95 160.93 128.37 160.43 128.37"/><polygon class="cls-1" points="159.85 127.79 159 126.97 163.29 122.58 163.29 124.27 159.85 127.79"/><polygon class="cls-1" points="159 126.97 158.16 126.15 163.29 120.9 163.29 122.58 159 126.97"/><polygon class="cls-1" points="158.16 126.15 157.32 125.32 163.29 119.22 163.29 120.9 158.16 126.15"/><polygon class="cls-1" points="157.32 125.32 156.48 124.5 163.29 117.53 163.29 119.22 157.32 125.32"/><polygon class="cls-1" points="156.48 124.5 155.64 123.68 163.29 115.85 163.29 117.53 156.48 124.5"/><polygon class="cls-1" points="155.64 123.68 154.8 122.86 163.29 114.17 163.29 115.85 155.64 123.68"/><polygon class="cls-1" points="154.8 122.86 153.96 122.03 163.29 112.49 163.29 114.17 154.8 122.86"/><polygon class="cls-1" points="153.96 122.03 153.12 121.21 163.29 110.81 163.29 112.49 153.96 122.03"/><polygon class="cls-1" points="153.12 121.21 152.28 120.39 163.29 109.12 163.29 110.81 153.12 121.21"/><polygon class="cls-1" points="152.28 120.39 151.44 119.56 163.29 107.44 163.29 109.12 152.28 120.39"/><polygon class="cls-1" points="151.44 119.56 150.59 118.74 163.29 105.76 163.29 107.44 151.44 119.56"/><polygon class="cls-1" points="150.59 118.74 149.75 117.92 163.29 104.08 163.29 105.76 150.59 118.74"/><polygon class="cls-1" points="149.75 117.92 148.91 117.1 163.29 102.39 163.29 104.08 149.75 117.92"/><polygon class="cls-1" points="148.91 117.1 148.07 116.28 163.29 100.71 163.29 102.39 148.91 117.1"/><polygon class="cls-1" points="148.07 116.28 147.23 115.45 163.05 99.28 163.29 99.52 163.29 100.71 148.07 116.28"/><rect class="cls-1" x="143.41" y="106.37" width="22.63" height="1.18" transform="translate(-29.92 142.78) rotate(-45.64)"/><rect class="cls-1" x="142.57" y="105.54" width="22.63" height="1.18" transform="translate(-29.59 141.93) rotate(-45.64)"/><rect class="cls-1" x="141.73" y="104.72" width="22.63" height="1.18" transform="translate(-29.25 141.09) rotate(-45.64)"/><rect class="cls-1" x="140.88" y="103.9" width="22.63" height="1.18" transform="translate(-28.92 140.24) rotate(-45.64)"/><rect class="cls-1" x="140.04" y="103.08" width="22.63" height="1.18" transform="translate(-28.58 139.39) rotate(-45.64)"/><rect class="cls-1" x="139.2" y="102.25" width="22.63" height="1.18" transform="translate(-28.25 138.54) rotate(-45.64)"/><rect class="cls-1" x="138.36" y="101.43" width="22.63" height="1.18" transform="translate(-27.91 137.69) rotate(-45.64)"/><rect class="cls-1" x="137.52" y="100.61" width="22.63" height="1.18" transform="translate(-27.58 136.84) rotate(-45.64)"/><rect class="cls-1" x="136.68" y="99.78" width="22.63" height="1.18" transform="translate(-27.24 135.99) rotate(-45.64)"/><rect class="cls-1" x="135.84" y="98.96" width="22.63" height="1.18" transform="translate(-26.91 135.15) rotate(-45.64)"/><rect class="cls-1" x="135" y="98.14" width="22.63" height="1.18" transform="translate(-26.57 134.3) rotate(-45.64)"/><rect class="cls-1" x="134.16" y="97.32" width="22.63" height="1.18" transform="translate(-26.24 133.45) rotate(-45.64)"/><rect class="cls-1" x="133.31" y="96.49" width="22.63" height="1.18" transform="translate(-25.9 132.6) rotate(-45.64)"/><rect class="cls-1" x="132.47" y="95.67" width="22.63" height="1.18" transform="translate(-25.57 131.75) rotate(-45.64)"/><rect class="cls-1" x="131.63" y="94.85" width="22.63" height="1.18" transform="translate(-25.23 130.9) rotate(-45.64)"/><rect class="cls-1" x="130.79" y="94.03" width="22.63" height="1.18" transform="translate(-24.9 130.05) rotate(-45.64)"/><rect class="cls-1" x="129.95" y="93.2" width="22.63" height="1.18" transform="translate(-24.56 129.2) rotate(-45.64)"/><rect class="cls-1" x="129.11" y="92.38" width="22.63" height="1.18" transform="translate(-24.23 128.36) rotate(-45.64)"/><rect class="cls-1" x="128.27" y="91.56" width="22.63" height="1.18" transform="translate(-23.89 127.51) rotate(-45.64)"/><rect class="cls-1" x="127.43" y="90.74" width="22.63" height="1.18" transform="translate(-23.56 126.66) rotate(-45.64)"/><rect class="cls-1" x="126.59" y="89.91" width="22.63" height="1.18" transform="translate(-23.22 125.81) rotate(-45.64)"/><rect class="cls-1" x="125.75" y="89.09" width="22.63" height="1.18" transform="translate(-22.89 124.96) rotate(-45.64)"/><rect class="cls-1" x="124.9" y="88.27" width="22.63" height="1.18" transform="translate(-22.55 124.11) rotate(-45.64)"/><rect class="cls-1" x="123.64" y="86.45" width="22.63" height="2.35" transform="translate(-22.05 122.84) rotate(-45.64)"/><rect class="cls-1" x="121.96" y="84.8" width="22.63" height="2.35" transform="translate(-21.38 121.14) rotate(-45.64)"/><rect class="cls-1" x="120.28" y="83.16" width="22.63" height="2.35" transform="translate(-20.71 119.44) rotate(-45.64)"/><rect class="cls-1" x="118.6" y="81.51" width="22.63" height="2.35" transform="translate(-20.04 117.75) rotate(-45.64)"/><rect class="cls-1" x="116.91" y="79.87" width="22.63" height="2.35" transform="translate(-19.37 116.05) rotate(-45.64)"/><rect class="cls-1" x="115.23" y="78.22" width="22.63" height="2.35" transform="translate(-18.7 114.35) rotate(-45.64)"/><rect class="cls-1" x="113.55" y="76.58" width="22.63" height="2.35" transform="translate(-18.03 112.66) rotate(-45.64)"/><rect class="cls-1" x="111.87" y="74.93" width="22.63" height="2.35" transform="translate(-17.36 110.96) rotate(-45.64)"/><rect class="cls-1" x="110.19" y="73.29" width="22.63" height="2.35" transform="translate(-16.69 109.26) rotate(-45.64)"/><rect class="cls-1" x="108.5" y="71.64" width="22.63" height="2.35" transform="translate(-16.02 107.56) rotate(-45.64)"/><rect class="cls-1" x="106.82" y="70" width="22.63" height="2.35" transform="translate(-15.35 105.87) rotate(-45.64)"/><rect class="cls-1" x="105.14" y="68.35" width="22.63" height="2.35" transform="translate(-14.68 104.17) rotate(-45.64)"/><rect class="cls-1" x="103.46" y="66.71" width="22.63" height="2.35" transform="translate(-14.01 102.47) rotate(-45.64)"/><rect class="cls-1" x="101.78" y="65.06" width="22.63" height="2.35" transform="translate(-13.34 100.77) rotate(-45.64)"/><rect class="cls-1" x="100.09" y="63.42" width="22.63" height="2.35" transform="translate(-12.67 99.08) rotate(-45.64)"/><rect class="cls-1" x="98.41" y="61.77" width="22.63" height="2.35" transform="translate(-12 97.38) rotate(-45.64)"/><rect class="cls-1" x="96.73" y="60.13" width="22.63" height="2.35" transform="translate(-11.33 95.68) rotate(-45.64)"/><rect class="cls-1" x="95.05" y="58.48" width="22.63" height="2.35" transform="translate(-10.66 93.98) rotate(-45.64)"/><rect class="cls-1" x="93.37" y="56.84" width="22.63" height="2.35" transform="translate(-9.99 92.29) rotate(-45.64)"/><rect class="cls-1" x="91.68" y="55.19" width="22.63" height="2.35" transform="translate(-9.32 90.59) rotate(-45.64)"/><rect class="cls-1" x="90" y="53.55" width="22.63" height="2.35" transform="translate(-8.65 88.89) rotate(-45.64)"/><rect class="cls-1" x="88.32" y="51.9" width="22.63" height="2.35" transform="translate(-7.98 87.19) rotate(-45.64)"/><rect class="cls-1" x="86.64" y="50.26" width="22.63" height="2.35" transform="translate(-7.31 85.5) rotate(-45.64)"/><rect class="cls-1" x="84.96" y="48.61" width="22.63" height="2.35" transform="translate(-6.64 83.8) rotate(-45.64)"/><rect class="cls-1" x="83.27" y="46.97" width="22.63" height="2.35" transform="translate(-5.97 82.1) rotate(-45.64)"/><rect class="cls-1" x="81.59" y="45.32" width="22.63" height="2.35" transform="translate(-5.3 80.41) rotate(-45.64)"/><rect class="cls-1" x="79.91" y="43.68" width="22.63" height="2.35" transform="translate(-4.63 78.71) rotate(-45.64)"/><rect class="cls-1" x="78.23" y="42.03" width="22.63" height="2.35" transform="translate(-3.96 77.01) rotate(-45.64)"/><rect class="cls-1" x="76.55" y="40.39" width="22.63" height="2.35" transform="translate(-3.29 75.31) rotate(-45.64)"/><rect class="cls-1" x="74.86" y="38.74" width="22.63" height="2.35" transform="translate(-2.62 73.62) rotate(-45.64)"/><rect class="cls-1" x="73.18" y="37.1" width="22.63" height="2.35" transform="translate(-1.95 71.92) rotate(-45.64)"/><rect class="cls-1" x="71.5" y="35.45" width="22.63" height="2.35" transform="translate(-1.28 70.22) rotate(-45.64)"/><rect class="cls-1" x="69.82" y="33.8" width="22.63" height="2.35" transform="translate(-0.61 68.52) rotate(-45.64)"/><rect class="cls-1" x="68.14" y="32.16" width="22.63" height="2.35" transform="translate(0.06 66.83) rotate(-45.64)"/><rect class="cls-1" x="66.45" y="30.51" width="22.63" height="2.35" transform="translate(0.74 65.13) rotate(-45.64)"/><rect class="cls-1" x="64.77" y="28.87" width="22.63" height="2.35" transform="translate(1.41 63.43) rotate(-45.64)"/><rect class="cls-1" x="63.09" y="27.22" width="22.63" height="2.35" transform="translate(2.08 61.73) rotate(-45.64)"/><rect class="cls-1" x="61.41" y="25.58" width="22.63" height="2.35" transform="translate(2.75 60.04) rotate(-45.64)"/><rect class="cls-1" x="59.73" y="23.93" width="22.63" height="2.35" transform="translate(3.42 58.34) rotate(-45.64)"/><rect class="cls-1" x="58.04" y="22.29" width="22.63" height="2.35" transform="translate(4.09 56.64) rotate(-45.64)"/><polygon class="cls-1" points="60.6 30.73 58.92 29.09 74.08 13.59 75.44 13.59 76.42 14.55 60.6 30.73"/><polygon class="cls-1" points="58.92 29.09 57.24 27.44 70.79 13.59 74.08 13.59 58.92 29.09"/><polygon class="cls-1" points="57.24 27.44 55.56 25.8 67.5 13.59 70.79 13.59 57.24 27.44"/><polygon class="cls-1" points="55.56 25.8 53.88 24.15 64.21 13.59 67.5 13.59 55.56 25.8"/><polygon class="cls-1" points="53.88 24.15 52.2 22.51 60.92 13.59 64.21 13.59 53.88 24.15"/><polygon class="cls-1" points="52.2 22.51 50.51 20.86 57.63 13.59 60.92 13.59 52.2 22.51"/><polygon class="cls-1" points="50.51 20.86 48.83 19.21 54.34 13.59 57.63 13.59 50.51 20.86"/><polygon class="cls-1" points="48.83 19.21 48.38 18.78 48.38 16.31 51.04 13.59 54.34 13.59 48.83 19.21"/><polygon class="cls-1" points="51.04 13.59 48.38 16.31 48.38 13.59 51.04 13.59"/></g><path class="cls-1" d="M12.1,74.07V49.88L126.78,164.79h-24Z"/><g class="cls-3"><polygon class="cls-1" points="126.58 164.79 126.78 164.59 126.78 164.79 126.58 164.79"/><polygon class="cls-1" points="124.93 164.79 126.78 162.9 126.78 164.59 126.58 164.79 124.93 164.79"/><polygon class="cls-1" points="123.28 164.79 126.78 161.21 126.78 162.9 124.93 164.79 123.28 164.79"/><polygon class="cls-1" points="121.63 164.79 126.78 159.52 126.78 161.21 123.28 164.79 121.63 164.79"/><polygon class="cls-1" points="119.98 164.79 126.08 158.55 126.78 159.24 126.78 159.52 121.63 164.79 119.98 164.79"/><polygon class="cls-1" points="118.33 164.79 125.23 157.73 126.08 158.55 119.98 164.79 118.33 164.79"/><polygon class="cls-1" points="116.68 164.79 124.39 156.9 125.23 157.73 118.33 164.79 116.68 164.79"/><polygon class="cls-1" points="115.03 164.79 123.55 156.08 124.39 156.9 116.68 164.79 115.03 164.79"/><polygon class="cls-1" points="113.38 164.79 122.7 155.25 123.55 156.08 115.03 164.79 113.38 164.79"/><polygon class="cls-1" points="111.72 164.79 121.86 154.43 122.7 155.25 113.38 164.79 111.72 164.79"/><polygon class="cls-1" points="110.07 164.79 121.01 153.6 121.86 154.43 111.72 164.79 110.07 164.79"/><polygon class="cls-1" points="108.42 164.79 120.17 152.78 121.01 153.6 110.07 164.79 108.42 164.79"/><polygon class="cls-1" points="106.77 164.79 119.33 151.95 120.17 152.78 108.42 164.79 106.77 164.79"/><polygon class="cls-1" points="105.12 164.79 118.48 151.13 119.33 151.95 106.77 164.79 105.12 164.79"/><polygon class="cls-1" points="103.47 164.79 117.64 150.3 118.48 151.13 105.12 164.79 103.47 164.79"/><polygon class="cls-1" points="101.82 164.79 116.79 149.47 117.64 150.3 103.47 164.79 101.82 164.79"/><polygon class="cls-1" points="100.17 164.79 115.95 148.65 116.79 149.47 101.82 164.79 100.17 164.79"/><polygon class="cls-1" points="99.95 164.79 99.22 164.07 115.11 147.82 115.95 148.65 100.17 164.79 99.95 164.79"/><rect class="cls-1" x="95.38" y="154.94" width="22.72" height="1.18" transform="translate(-79.09 123.09) rotate(-45.64)"/><rect class="cls-1" x="94.53" y="154.12" width="22.72" height="1.18" transform="translate(-78.75 122.24) rotate(-45.64)"/><rect class="cls-1" x="93.69" y="153.29" width="22.72" height="1.18" transform="translate(-78.41 121.39) rotate(-45.64)"/><rect class="cls-1" x="92.85" y="152.47" width="22.72" height="1.18" transform="translate(-78.08 120.54) rotate(-45.64)"/><rect class="cls-1" x="92" y="151.64" width="22.72" height="1.18" transform="translate(-77.74 119.69) rotate(-45.64)"/><rect class="cls-1" x="91.16" y="150.82" width="22.72" height="1.18" transform="translate(-77.41 118.84) rotate(-45.64)"/><rect class="cls-1" x="90.31" y="149.99" width="22.72" height="1.18" transform="translate(-77.07 117.98) rotate(-45.64)"/><rect class="cls-1" x="89.47" y="149.17" width="22.72" height="1.18" transform="translate(-76.73 117.13) rotate(-45.64)"/><rect class="cls-1" x="88.63" y="148.34" width="22.72" height="1.18" transform="translate(-76.4 116.28) rotate(-45.64)"/><rect class="cls-1" x="87.78" y="147.52" width="22.72" height="1.18" transform="translate(-76.06 115.43) rotate(-45.64)"/><rect class="cls-1" x="86.94" y="146.69" width="22.72" height="1.18" transform="translate(-75.73 114.58) rotate(-45.64)"/><rect class="cls-1" x="86.1" y="145.86" width="22.72" height="1.18" transform="translate(-75.39 113.73) rotate(-45.64)"/><rect class="cls-1" x="85.25" y="145.04" width="22.72" height="1.18" transform="translate(-75.05 112.87) rotate(-45.64)"/><rect class="cls-1" x="84.41" y="144.21" width="22.72" height="1.18" transform="translate(-74.72 112.02) rotate(-45.64)"/><rect class="cls-1" x="83.56" y="143.39" width="22.72" height="1.18" transform="translate(-74.38 111.17) rotate(-45.64)"/><rect class="cls-1" x="82.72" y="142.56" width="22.72" height="1.18" transform="translate(-74.04 110.32) rotate(-45.64)"/><rect class="cls-1" x="81.88" y="141.74" width="22.72" height="1.18" transform="translate(-73.71 109.47) rotate(-45.64)"/><rect class="cls-1" x="81.03" y="140.91" width="22.72" height="1.18" transform="translate(-73.37 108.62) rotate(-45.64)"/><rect class="cls-1" x="80.19" y="140.09" width="22.72" height="1.18" transform="translate(-73.04 107.77) rotate(-45.64)"/><rect class="cls-1" x="79.34" y="139.26" width="22.72" height="1.18" transform="translate(-72.7 106.91) rotate(-45.64)"/><rect class="cls-1" x="78.5" y="138.44" width="22.72" height="1.18" transform="translate(-72.36 106.06) rotate(-45.64)"/><rect class="cls-1" x="77.66" y="137.61" width="22.72" height="1.18" transform="translate(-72.03 105.21) rotate(-45.64)"/><rect class="cls-1" x="76.39" y="135.78" width="22.72" height="2.36" transform="translate(-71.52 103.93) rotate(-45.64)"/><rect class="cls-1" x="74.7" y="134.13" width="22.72" height="2.36" transform="translate(-70.85 102.23) rotate(-45.64)"/><rect class="cls-1" x="73.02" y="132.48" width="22.72" height="2.36" transform="translate(-70.18 100.53) rotate(-45.64)"/><rect class="cls-1" x="71.33" y="130.83" width="22.72" height="2.36" transform="translate(-69.51 98.82) rotate(-45.64)"/><rect class="cls-1" x="69.64" y="129.18" width="22.72" height="2.36" transform="translate(-68.83 97.12) rotate(-45.64)"/><rect class="cls-1" x="67.95" y="127.53" width="22.72" height="2.36" transform="translate(-68.16 95.42) rotate(-45.64)"/><rect class="cls-1" x="66.26" y="125.88" width="22.72" height="2.36" transform="translate(-67.49 93.71) rotate(-45.64)"/><rect class="cls-1" x="64.58" y="124.23" width="22.72" height="2.36" transform="translate(-66.82 92.01) rotate(-45.64)"/><rect class="cls-1" x="62.89" y="122.58" width="22.72" height="2.36" transform="translate(-66.14 90.31) rotate(-45.64)"/><rect class="cls-1" x="61.2" y="120.93" width="22.72" height="2.36" transform="translate(-65.47 88.61) rotate(-45.64)"/><rect class="cls-1" x="59.51" y="119.28" width="22.72" height="2.36" transform="translate(-64.8 86.9) rotate(-45.64)"/><rect class="cls-1" x="57.83" y="117.63" width="22.72" height="2.36" transform="translate(-64.13 85.2) rotate(-45.64)"/><rect class="cls-1" x="56.14" y="115.97" width="22.72" height="2.36" transform="translate(-63.45 83.5) rotate(-45.64)"/><rect class="cls-1" x="54.45" y="114.32" width="22.72" height="2.36" transform="translate(-62.78 81.79) rotate(-45.64)"/><rect class="cls-1" x="52.76" y="112.67" width="22.72" height="2.36" transform="translate(-62.11 80.09) rotate(-45.64)"/><rect class="cls-1" x="51.07" y="111.02" width="22.72" height="2.36" transform="translate(-61.44 78.39) rotate(-45.64)"/><rect class="cls-1" x="49.39" y="109.37" width="22.72" height="2.36" transform="translate(-60.76 76.68) rotate(-45.64)"/><rect class="cls-1" x="47.7" y="107.72" width="22.72" height="2.36" transform="translate(-60.09 74.98) rotate(-45.64)"/><rect class="cls-1" x="46.01" y="106.07" width="22.72" height="2.36" transform="translate(-59.42 73.28) rotate(-45.64)"/><rect class="cls-1" x="44.32" y="104.42" width="22.72" height="2.36" transform="translate(-58.75 71.57) rotate(-45.64)"/><rect class="cls-1" x="42.64" y="102.77" width="22.72" height="2.36" transform="translate(-58.07 69.87) rotate(-45.64)"/><rect class="cls-1" x="40.95" y="101.12" width="22.72" height="2.36" transform="translate(-57.4 68.17) rotate(-45.64)"/><rect class="cls-1" x="39.26" y="99.47" width="22.72" height="2.36" transform="translate(-56.73 66.46) rotate(-45.64)"/><rect class="cls-1" x="37.57" y="97.82" width="22.72" height="2.36" transform="translate(-56.06 64.76) rotate(-45.64)"/><rect class="cls-1" x="35.88" y="96.17" width="22.72" height="2.36" transform="translate(-55.38 63.06) rotate(-45.64)"/><rect class="cls-1" x="34.2" y="94.52" width="22.72" height="2.36" transform="translate(-54.71 61.35) rotate(-45.64)"/><rect class="cls-1" x="32.51" y="92.87" width="22.72" height="2.36" transform="translate(-54.04 59.65) rotate(-45.64)"/><rect class="cls-1" x="30.82" y="91.21" width="22.72" height="2.36" transform="translate(-53.37 57.95) rotate(-45.64)"/><rect class="cls-1" x="29.13" y="89.56" width="22.72" height="2.36" transform="translate(-52.69 56.25) rotate(-45.64)"/><rect class="cls-1" x="27.45" y="87.91" width="22.72" height="2.36" transform="translate(-52.02 54.54) rotate(-45.64)"/><rect class="cls-1" x="25.76" y="86.26" width="22.72" height="2.36" transform="translate(-51.35 52.84) rotate(-45.64)"/><rect class="cls-1" x="24.07" y="84.61" width="22.72" height="2.36" transform="translate(-50.68 51.14) rotate(-45.64)"/><rect class="cls-1" x="22.38" y="82.96" width="22.72" height="2.36" transform="translate(-50 49.43) rotate(-45.64)"/><rect class="cls-1" x="20.69" y="81.31" width="22.72" height="2.36" transform="translate(-49.33 47.73) rotate(-45.64)"/><rect class="cls-1" x="19.01" y="79.66" width="22.72" height="2.36" transform="translate(-48.66 46.03) rotate(-45.64)"/><rect class="cls-1" x="17.32" y="78.01" width="22.72" height="2.36" transform="translate(-47.99 44.32) rotate(-45.64)"/><rect class="cls-1" x="15.63" y="76.36" width="22.72" height="2.36" transform="translate(-47.31 42.62) rotate(-45.64)"/><rect class="cls-1" x="13.94" y="74.71" width="22.72" height="2.36" transform="translate(-46.64 40.92) rotate(-45.64)"/><rect class="cls-1" x="12.26" y="73.06" width="22.72" height="2.36" transform="translate(-45.97 39.21) rotate(-45.64)"/><rect class="cls-1" x="10.57" y="71.41" width="22.72" height="2.36" transform="translate(-45.3 37.51) rotate(-45.64)"/><polygon class="cls-1" points="13.14 79.88 12.1 78.86 12.1 77.58 27.34 61.99 29.03 63.64 13.14 79.88"/><polygon class="cls-1" points="12.1 74.2 25.65 60.34 27.34 61.99 12.1 77.58 12.1 74.2"/><polygon class="cls-1" points="12.1 70.82 23.97 58.69 25.65 60.34 12.1 74.2 12.1 70.82"/><polygon class="cls-1" points="12.1 67.45 22.28 57.04 23.97 58.69 12.1 70.82 12.1 67.45"/><polygon class="cls-1" points="12.1 64.07 20.59 55.38 22.28 57.04 12.1 67.45 12.1 64.07"/><polygon class="cls-1" points="12.1 60.69 18.9 53.73 20.59 55.38 12.1 64.07 12.1 60.69"/><polygon class="cls-1" points="12.1 57.32 17.21 52.08 18.9 53.73 12.1 60.69 12.1 57.32"/><polygon class="cls-1" points="12.1 53.94 15.53 50.43 17.21 52.08 12.1 57.32 12.1 53.94"/><polygon class="cls-1" points="12.1 50.56 12.77 49.88 14.96 49.88 15.53 50.43 12.1 53.94 12.1 50.56"/><polygon class="cls-1" points="12.77 49.88 12.1 50.56 12.1 49.88 12.77 49.88"/></g><path class="cls-1" d="M163.29,80.1,108.86,25.68h24.19l30.24,30.24Z"/><g class="cls-4"><polygon class="cls-1" points="162.71 80.1 163.29 79.5 163.29 80.1 162.71 80.1"/><polygon class="cls-1" points="161.55 80.1 163.29 78.32 163.29 79.5 162.71 80.1 161.55 80.1"/><polygon class="cls-1" points="160.43 80.1 160.42 80.09 163.29 77.14 163.29 78.32 161.55 80.1 160.43 80.1"/><polygon class="cls-1" points="160.42 80.09 159.83 79.51 163.29 75.96 163.29 77.14 160.42 80.09"/><polygon class="cls-1" points="159.83 79.51 159.24 78.93 163.29 74.78 163.29 75.96 159.83 79.51"/><polygon class="cls-1" points="159.24 78.93 158.65 78.36 163.29 73.61 163.29 74.78 159.24 78.93"/><polygon class="cls-1" points="158.65 78.36 158.06 77.78 163.29 72.43 163.29 73.61 158.65 78.36"/><polygon class="cls-1" points="158.06 77.78 157.47 77.2 163.29 71.25 163.29 72.43 158.06 77.78"/><polygon class="cls-1" points="157.47 77.2 156.88 76.63 163.29 70.07 163.29 71.25 157.47 77.2"/><polygon class="cls-1" points="156.88 76.63 156.29 76.05 163.29 68.89 163.29 70.07 156.88 76.63"/><polygon class="cls-1" points="156.29 76.05 155.7 75.47 163.29 67.71 163.29 68.89 156.29 76.05"/><polygon class="cls-1" points="155.7 75.47 155.11 74.9 163.29 66.53 163.29 67.71 155.7 75.47"/><polygon class="cls-1" points="155.11 74.9 154.52 74.32 163.29 65.35 163.29 66.53 155.11 74.9"/><polygon class="cls-1" points="154.52 74.32 153.93 73.74 163.29 64.17 163.29 65.35 154.52 74.32"/><polygon class="cls-1" points="153.93 73.74 153.34 73.17 163.29 62.99 163.29 64.17 153.93 73.74"/><polygon class="cls-1" points="153.34 73.17 152.75 72.59 163.29 61.81 163.29 62.99 153.34 73.17"/><polygon class="cls-1" points="152.75 72.59 152.16 72.01 163.29 60.63 163.29 61.81 152.75 72.59"/><polygon class="cls-1" points="152.16 72.01 151.57 71.44 163.29 59.45 163.29 60.63 152.16 72.01"/><polygon class="cls-1" points="151.57 71.44 150.98 70.86 163.29 58.27 163.29 59.45 151.57 71.44"/><polygon class="cls-1" points="150.98 70.86 150.39 70.28 163.29 57.09 163.29 58.27 150.98 70.86"/><polygon class="cls-1" points="150.39 70.28 149.81 69.71 163.29 55.91 163.29 57.09 150.39 70.28"/><polygon class="cls-1" points="149.81 69.71 149.22 69.13 163.29 54.74 163.29 55.91 149.81 69.71"/><polygon class="cls-1" points="149.22 69.13 148.63 68.56 163.29 53.56 163.29 54.74 149.22 69.13"/><polygon class="cls-1" points="148.63 68.56 148.04 67.98 163.25 52.42 163.29 52.46 163.29 53.56 148.63 68.56"/><rect class="cls-1" x="144.47" y="59.5" width="21.76" height="0.82" transform="translate(3.9 129.08) rotate(-45.64)"/><rect class="cls-1" x="143.88" y="58.92" width="21.76" height="0.82" transform="translate(4.13 128.49) rotate(-45.64)"/><rect class="cls-1" x="143.29" y="58.35" width="21.76" height="0.82" transform="translate(4.37 127.89) rotate(-45.64)"/><rect class="cls-1" x="142.7" y="57.77" width="21.76" height="0.82" transform="translate(4.6 127.3) rotate(-45.64)"/><rect class="cls-1" x="142.11" y="57.19" width="21.76" height="0.82" transform="translate(4.84 126.7) rotate(-45.64)"/><rect class="cls-1" x="141.52" y="56.62" width="21.76" height="0.82" transform="translate(5.07 126.11) rotate(-45.64)"/><rect class="cls-1" x="140.93" y="56.04" width="21.76" height="0.82" transform="translate(5.31 125.51) rotate(-45.64)"/><rect class="cls-1" x="140.34" y="55.46" width="21.76" height="0.82" transform="translate(5.54 124.92) rotate(-45.64)"/><rect class="cls-1" x="139.75" y="54.89" width="21.76" height="0.82" transform="translate(5.78 124.32) rotate(-45.64)"/><rect class="cls-1" x="139.16" y="54.31" width="21.76" height="0.82" transform="translate(6.01 123.73) rotate(-45.64)"/><rect class="cls-1" x="138.57" y="53.73" width="21.76" height="0.82" transform="translate(6.25 123.13) rotate(-45.64)"/><rect class="cls-1" x="137.98" y="53.16" width="21.76" height="0.82" transform="translate(6.48 122.54) rotate(-45.64)"/><rect class="cls-1" x="137.39" y="52.58" width="21.76" height="0.82" transform="translate(6.72 121.94) rotate(-45.64)"/><rect class="cls-1" x="136.8" y="52" width="21.76" height="0.82" transform="translate(6.95 121.35) rotate(-45.64)"/><rect class="cls-1" x="136.22" y="51.43" width="21.76" height="0.82" transform="translate(7.18 120.75) rotate(-45.64)"/><rect class="cls-1" x="135.63" y="50.85" width="21.76" height="0.82" transform="translate(7.42 120.16) rotate(-45.64)"/><rect class="cls-1" x="135.04" y="50.27" width="21.76" height="0.82" transform="translate(7.65 119.57) rotate(-45.64)"/><rect class="cls-1" x="134.45" y="49.7" width="21.76" height="0.82" transform="translate(7.89 118.97) rotate(-45.64)"/><rect class="cls-1" x="133.86" y="49.12" width="21.76" height="0.82" transform="translate(8.12 118.38) rotate(-45.64)"/><rect class="cls-1" x="133.27" y="48.54" width="21.76" height="0.82" transform="translate(8.36 117.78) rotate(-45.64)"/><rect class="cls-1" x="132.68" y="47.97" width="21.76" height="0.82" transform="translate(8.59 117.19) rotate(-45.64)"/><rect class="cls-1" x="132.09" y="47.39" width="21.76" height="0.82" transform="translate(8.83 116.59) rotate(-45.64)"/><rect class="cls-1" x="131.5" y="46.81" width="21.76" height="0.82" transform="translate(9.06 116) rotate(-45.64)"/><rect class="cls-1" x="130.91" y="46.24" width="21.76" height="0.82" transform="translate(9.3 115.4) rotate(-45.64)"/><rect class="cls-1" x="130.32" y="45.66" width="21.76" height="0.82" transform="translate(9.53 114.81) rotate(-45.64)"/><rect class="cls-1" x="129.73" y="45.08" width="21.76" height="0.82" transform="translate(9.77 114.21) rotate(-45.64)"/><rect class="cls-1" x="129.14" y="44.51" width="21.76" height="0.82" transform="translate(10 113.62) rotate(-45.64)"/><rect class="cls-1" x="128.55" y="43.93" width="21.76" height="0.82" transform="translate(10.24 113.02) rotate(-45.64)"/><rect class="cls-1" x="127.96" y="43.35" width="21.76" height="0.82" transform="translate(10.47 112.43) rotate(-45.64)"/><rect class="cls-1" x="127.37" y="42.78" width="21.76" height="0.82" transform="translate(10.71 111.83) rotate(-45.64)"/><rect class="cls-1" x="126.78" y="42.2" width="21.76" height="0.82" transform="translate(10.94 111.24) rotate(-45.64)"/><rect class="cls-1" x="126.19" y="41.63" width="21.76" height="0.82" transform="translate(11.18 110.64) rotate(-45.64)"/><rect class="cls-1" x="125.6" y="41.05" width="21.76" height="0.82" transform="translate(11.41 110.05) rotate(-45.64)"/><rect class="cls-1" x="125.01" y="40.47" width="21.76" height="0.82" transform="translate(11.65 109.45) rotate(-45.64)"/><rect class="cls-1" x="124.42" y="39.9" width="21.76" height="0.82" transform="translate(11.88 108.86) rotate(-45.64)"/><rect class="cls-1" x="123.84" y="39.32" width="21.76" height="0.82" transform="translate(12.12 108.26) rotate(-45.64)"/><rect class="cls-1" x="123.25" y="38.74" width="21.76" height="0.82" transform="translate(12.35 107.67) rotate(-45.64)"/><rect class="cls-1" x="122.66" y="38.17" width="21.76" height="0.82" transform="translate(12.59 107.07) rotate(-45.64)"/><rect class="cls-1" x="122.07" y="37.59" width="21.76" height="0.82" transform="translate(12.82 106.48) rotate(-45.64)"/><rect class="cls-1" x="121.48" y="37.01" width="21.76" height="0.82" transform="translate(13.06 105.88) rotate(-45.64)"/><rect class="cls-1" x="120.89" y="36.44" width="21.76" height="0.82" transform="translate(13.29 105.29) rotate(-45.64)"/><rect class="cls-1" x="120.3" y="35.86" width="21.76" height="0.82" transform="translate(13.53 104.69) rotate(-45.64)"/><rect class="cls-1" x="119.71" y="35.28" width="21.76" height="0.82" transform="translate(13.76 104.1) rotate(-45.64)"/><rect class="cls-1" x="119.12" y="34.71" width="21.76" height="0.82" transform="translate(14 103.5) rotate(-45.64)"/><rect class="cls-1" x="118.23" y="33.43" width="21.76" height="1.65" transform="translate(14.35 102.61) rotate(-45.64)"/><polygon class="cls-1" points="120.92 41.46 119.74 40.3 134.04 25.68 135.91 25.68 136.13 25.9 120.92 41.46"/><polygon class="cls-1" points="119.74 40.3 118.56 39.15 131.73 25.68 134.04 25.68 119.74 40.3"/><polygon class="cls-1" points="118.56 39.15 117.38 38 129.42 25.68 131.73 25.68 118.56 39.15"/><polygon class="cls-1" points="117.38 38 116.2 36.84 127.12 25.68 129.42 25.68 117.38 38"/><polygon class="cls-1" points="116.2 36.84 115.02 35.69 124.81 25.68 127.12 25.68 116.2 36.84"/><polygon class="cls-1" points="115.02 35.69 113.84 34.54 122.5 25.68 124.81 25.68 115.02 35.69"/><polygon class="cls-1" points="113.84 34.54 112.67 33.38 120.2 25.68 122.5 25.68 113.84 34.54"/><polygon class="cls-1" points="112.67 33.38 111.49 32.23 117.89 25.68 120.2 25.68 112.67 33.38"/><polygon class="cls-1" points="111.49 32.23 110.31 31.08 115.58 25.68 117.89 25.68 111.49 32.23"/><polygon class="cls-1" points="110.31 31.08 109.13 29.93 113.28 25.68 115.58 25.68 110.31 31.08"/><polygon class="cls-1" points="109.13 29.93 108.86 29.67 108.86 27.84 110.97 25.68 113.28 25.68 109.13 29.93"/><polygon class="cls-1" points="110.97 25.68 108.86 27.84 108.86 25.68 110.97 25.68"/></g><path class="cls-1" d="M24.19,134.55v-24.2l54.37,54.44c-9.51-.19-24.13,0-24.13,0Z"/><g class="cls-5"><polygon class="cls-1" points="78.15 164.79 78.56 164.36 78.56 164.79 78.15 164.79"/><polygon class="cls-1" points="76.99 164.79 78.56 163.18 78.56 164.36 78.15 164.79 76.99 164.79"/><polygon class="cls-1" points="75.84 164.79 78.56 162 78.56 163.18 76.99 164.79 75.84 164.79"/><polygon class="cls-1" points="74.68 164.79 78.56 160.81 78.56 162 75.84 164.79 74.68 164.79"/><polygon class="cls-1" points="73.52 164.79 78.01 160.19 78.56 160.73 78.56 160.81 74.68 164.79 73.52 164.79"/><polygon class="cls-1" points="72.37 164.79 77.42 159.62 78.01 160.19 73.52 164.79 72.37 164.79"/><polygon class="cls-1" points="71.21 164.79 76.83 159.04 77.42 159.62 72.37 164.79 71.21 164.79"/><polygon class="cls-1" points="70.05 164.79 76.24 158.46 76.83 159.04 71.21 164.79 70.05 164.79"/><polygon class="cls-1" points="68.9 164.79 75.65 157.88 76.24 158.46 70.05 164.79 68.9 164.79"/><polygon class="cls-1" points="67.74 164.79 75.06 157.3 75.65 157.88 68.9 164.79 67.74 164.79"/><polygon class="cls-1" points="66.58 164.79 74.47 156.73 75.06 157.3 67.74 164.79 66.58 164.79"/><polygon class="cls-1" points="65.43 164.79 73.88 156.15 74.47 156.73 66.58 164.79 65.43 164.79"/><polygon class="cls-1" points="64.27 164.79 73.28 155.57 73.88 156.15 65.43 164.79 64.27 164.79"/><polygon class="cls-1" points="63.11 164.79 72.69 154.99 73.28 155.57 64.27 164.79 63.11 164.79"/><polygon class="cls-1" points="61.96 164.79 72.1 154.41 72.69 154.99 63.11 164.79 61.96 164.79"/><polygon class="cls-1" points="60.8 164.79 71.51 153.84 72.1 154.41 61.96 164.79 60.8 164.79"/><polygon class="cls-1" points="59.64 164.79 70.92 153.26 71.51 153.84 60.8 164.79 59.64 164.79"/><polygon class="cls-1" points="58.49 164.79 70.33 152.68 70.92 153.26 59.64 164.79 58.49 164.79"/><polygon class="cls-1" points="57.33 164.79 69.74 152.1 70.33 152.68 58.49 164.79 57.33 164.79"/><polygon class="cls-1" points="56.17 164.79 69.14 151.52 69.74 152.1 57.33 164.79 56.17 164.79"/><polygon class="cls-1" points="55.02 164.79 68.55 150.94 69.14 151.52 56.17 164.79 55.02 164.79"/><polygon class="cls-1" points="53.86 164.79 67.96 150.37 68.55 150.94 55.02 164.79 53.86 164.79"/><polygon class="cls-1" points="52.7 164.79 67.37 149.79 67.96 150.37 53.86 164.79 52.7 164.79"/><polygon class="cls-1" points="51.57 164.79 51.56 164.77 66.78 149.21 67.37 149.79 52.7 164.79 51.57 164.79"/><rect class="cls-1" x="47.99" y="156.29" width="21.77" height="0.83" transform="translate(-94.32 89.23) rotate(-45.64)"/><rect class="cls-1" x="47.4" y="155.71" width="21.77" height="0.83" transform="translate(-94.09 88.63) rotate(-45.64)"/><rect class="cls-1" x="46.81" y="155.13" width="21.77" height="0.83" transform="translate(-93.85 88.03) rotate(-45.64)"/><rect class="cls-1" x="46.21" y="154.55" width="21.77" height="0.83" transform="translate(-93.61 87.44) rotate(-45.64)"/><rect class="cls-1" x="45.62" y="153.98" width="21.77" height="0.83" transform="translate(-93.38 86.84) rotate(-45.64)"/><rect class="cls-1" x="45.03" y="153.4" width="21.77" height="0.83" transform="translate(-93.14 86.24) rotate(-45.64)"/><rect class="cls-1" x="44.44" y="152.82" width="21.77" height="0.83" transform="translate(-92.91 85.65) rotate(-45.64)"/><rect class="cls-1" x="43.85" y="152.24" width="21.77" height="0.83" transform="translate(-92.67 85.05) rotate(-45.64)"/><rect class="cls-1" x="43.26" y="151.66" width="21.77" height="0.83" transform="translate(-92.44 84.45) rotate(-45.64)"/><rect class="cls-1" x="42.67" y="151.09" width="21.77" height="0.83" transform="translate(-92.2 83.86) rotate(-45.64)"/><rect class="cls-1" x="42.08" y="150.51" width="21.77" height="0.83" transform="translate(-91.97 83.26) rotate(-45.64)"/><rect class="cls-1" x="41.49" y="149.93" width="21.77" height="0.83" transform="translate(-91.73 82.66) rotate(-45.64)"/><rect class="cls-1" x="40.89" y="149.35" width="21.77" height="0.83" transform="translate(-91.49 82.07) rotate(-45.64)"/><rect class="cls-1" x="40.3" y="148.77" width="21.77" height="0.83" transform="translate(-91.26 81.47) rotate(-45.64)"/><rect class="cls-1" x="39.71" y="148.19" width="21.77" height="0.83" transform="translate(-91.02 80.87) rotate(-45.64)"/><rect class="cls-1" x="39.12" y="147.62" width="21.77" height="0.83" transform="translate(-90.79 80.28) rotate(-45.64)"/><rect class="cls-1" x="38.53" y="147.04" width="21.77" height="0.83" transform="translate(-90.55 79.68) rotate(-45.64)"/><rect class="cls-1" x="37.94" y="146.46" width="21.77" height="0.83" transform="translate(-90.32 79.08) rotate(-45.64)"/><rect class="cls-1" x="37.35" y="145.88" width="21.77" height="0.83" transform="translate(-90.08 78.49) rotate(-45.64)"/><rect class="cls-1" x="36.76" y="145.3" width="21.77" height="0.83" transform="translate(-89.85 77.89) rotate(-45.64)"/><rect class="cls-1" x="36.16" y="144.73" width="21.77" height="0.83" transform="translate(-89.61 77.29) rotate(-45.64)"/><rect class="cls-1" x="35.57" y="144.15" width="21.77" height="0.83" transform="translate(-89.37 76.7) rotate(-45.64)"/><rect class="cls-1" x="34.98" y="143.57" width="21.77" height="0.83" transform="translate(-89.14 76.1) rotate(-45.64)"/><rect class="cls-1" x="34.39" y="142.99" width="21.77" height="0.83" transform="translate(-88.9 75.5) rotate(-45.64)"/><rect class="cls-1" x="33.8" y="142.41" width="21.77" height="0.83" transform="translate(-88.67 74.91) rotate(-45.64)"/><rect class="cls-1" x="33.21" y="141.83" width="21.77" height="0.83" transform="translate(-88.43 74.31) rotate(-45.64)"/><rect class="cls-1" x="32.62" y="141.26" width="21.77" height="0.83" transform="translate(-88.2 73.71) rotate(-45.64)"/><rect class="cls-1" x="32.03" y="140.68" width="21.77" height="0.83" transform="translate(-87.96 73.12) rotate(-45.64)"/><rect class="cls-1" x="31.44" y="140.1" width="21.77" height="0.83" transform="translate(-87.73 72.52) rotate(-45.64)"/><rect class="cls-1" x="30.84" y="139.52" width="21.77" height="0.83" transform="translate(-87.49 71.92) rotate(-45.64)"/><rect class="cls-1" x="30.25" y="138.94" width="21.77" height="0.83" transform="translate(-87.25 71.33) rotate(-45.64)"/><rect class="cls-1" x="29.66" y="138.37" width="21.77" height="0.83" transform="translate(-87.02 70.73) rotate(-45.64)"/><rect class="cls-1" x="29.07" y="137.79" width="21.77" height="0.83" transform="translate(-86.78 70.14) rotate(-45.64)"/><rect class="cls-1" x="28.48" y="137.21" width="21.77" height="0.83" transform="translate(-86.55 69.54) rotate(-45.64)"/><rect class="cls-1" x="27.89" y="136.63" width="21.77" height="0.83" transform="translate(-86.31 68.94) rotate(-45.64)"/><rect class="cls-1" x="27.3" y="136.05" width="21.77" height="0.83" transform="translate(-86.08 68.35) rotate(-45.64)"/><rect class="cls-1" x="26.71" y="135.47" width="21.77" height="0.83" transform="translate(-85.84 67.75) rotate(-45.64)"/><rect class="cls-1" x="26.11" y="134.9" width="21.77" height="0.83" transform="translate(-85.61 67.15) rotate(-45.64)"/><rect class="cls-1" x="25.52" y="134.32" width="21.77" height="0.83" transform="translate(-85.37 66.56) rotate(-45.64)"/><rect class="cls-1" x="24.93" y="133.74" width="21.77" height="0.83" transform="translate(-85.13 65.96) rotate(-45.64)"/><rect class="cls-1" x="24.34" y="133.16" width="21.77" height="0.83" transform="translate(-84.9 65.36) rotate(-45.64)"/><rect class="cls-1" x="23.75" y="132.58" width="21.77" height="0.83" transform="translate(-84.66 64.77) rotate(-45.64)"/><rect class="cls-1" x="22.86" y="131.3" width="21.77" height="1.65" transform="translate(-84.31 63.87) rotate(-45.64)"/><rect class="cls-1" x="21.68" y="130.15" width="21.77" height="1.65" transform="translate(-83.84 62.68) rotate(-45.64)"/><polygon class="cls-1" points="24.36 138.18 24.19 138.01 24.19 135.99 38.4 121.46 39.59 122.61 24.36 138.18"/><polygon class="cls-1" points="24.19 133.62 37.22 120.3 38.4 121.46 24.19 135.99 24.19 133.62"/><polygon class="cls-1" points="24.19 131.26 36.04 119.14 37.22 120.3 24.19 133.62 24.19 131.26"/><polygon class="cls-1" points="24.19 128.89 34.86 117.99 36.04 119.14 24.19 131.26 24.19 128.89"/><polygon class="cls-1" points="24.19 126.53 33.67 116.83 34.86 117.99 24.19 128.89 24.19 126.53"/><polygon class="cls-1" points="24.19 124.16 32.49 115.67 33.67 116.83 24.19 126.53 24.19 124.16"/><polygon class="cls-1" points="24.19 121.8 31.31 114.52 32.49 115.67 24.19 124.16 24.19 121.8"/><polygon class="cls-1" points="24.19 119.43 30.13 113.36 31.31 114.52 24.19 121.8 24.19 119.43"/><polygon class="cls-1" points="24.19 117.06 28.95 112.2 30.13 113.36 24.19 119.43 24.19 117.06"/><polygon class="cls-1" points="24.19 114.7 27.76 111.05 28.95 112.2 24.19 117.06 24.19 114.7"/><polygon class="cls-1" points="24.19 112.33 26.13 110.36 27.05 110.36 27.76 111.05 24.19 114.7 24.19 112.33"/><polygon class="cls-1" points="26.13 110.36 24.19 112.33 24.19 110.36 26.13 110.36"/></g><path class="cls-1" d="M12.1,1.49,163.29,152.57v12.22c-3.61.16-4.31,0-12.26,0L0,13.59V1.49Z"/><g class="cls-6"><polygon class="cls-1" points="161.98 164.95 163.29 163.61 163.29 164.95 161.98 164.95"/><polygon class="cls-1" points="160.23 164.95 163.29 161.81 163.29 163.61 161.98 164.95 160.23 164.95"/><polygon class="cls-1" points="158.47 164.95 163.29 160.02 163.29 161.81 160.23 164.95 158.47 164.95"/><polygon class="cls-1" points="156.72 164.95 163.29 158.22 163.29 160.02 158.47 164.95 156.72 164.95"/><polygon class="cls-1" points="154.96 164.95 163.29 156.43 163.29 158.22 156.72 164.95 154.96 164.95"/><polygon class="cls-1" points="153.21 164.95 163.29 154.64 163.29 156.43 154.96 164.95 153.21 164.95"/><polygon class="cls-1" points="151.45 164.95 163.29 152.84 163.29 154.64 153.21 164.95 151.45 164.95"/><polygon class="cls-1" points="149.7 164.95 163.29 151.05 163.29 152.84 151.45 164.95 149.7 164.95"/><polygon class="cls-1" points="148.33 164.95 148.13 164.75 163.29 149.25 163.29 151.05 149.7 164.95 148.33 164.95"/><polygon class="cls-1" points="148.13 164.75 147.24 163.88 163.29 147.46 163.29 149.25 148.13 164.75"/><polygon class="cls-1" points="147.24 163.88 146.34 163 162.84 146.13 163.29 146.57 163.29 147.46 147.24 163.88"/><rect class="cls-1" x="142.34" y="153.5" width="23.6" height="1.25" transform="translate(-63.82 156.56) rotate(-45.64)"/><rect class="cls-1" x="141.45" y="152.62" width="23.6" height="1.25" transform="translate(-63.46 155.65) rotate(-45.64)"/><rect class="cls-1" x="140.55" y="151.74" width="23.6" height="1.25" transform="translate(-63.11 154.75) rotate(-45.64)"/><rect class="cls-1" x="139.65" y="150.87" width="23.6" height="1.25" transform="translate(-62.75 153.84) rotate(-45.64)"/><rect class="cls-1" x="138.75" y="149.99" width="23.6" height="1.25" transform="translate(-62.39 152.94) rotate(-45.64)"/><rect class="cls-1" x="137.86" y="149.11" width="23.6" height="1.25" transform="translate(-62.03 152.03) rotate(-45.64)"/><rect class="cls-1" x="136.96" y="148.23" width="23.6" height="1.25" transform="translate(-61.68 151.13) rotate(-45.64)"/><rect class="cls-1" x="136.06" y="147.36" width="23.6" height="1.25" transform="translate(-61.32 150.22) rotate(-45.64)"/><rect class="cls-1" x="135.17" y="146.48" width="23.6" height="1.25" transform="translate(-60.96 149.32) rotate(-45.64)"/><rect class="cls-1" x="134.27" y="145.6" width="23.6" height="1.25" transform="translate(-60.61 148.41) rotate(-45.64)"/><rect class="cls-1" x="133.37" y="144.72" width="23.6" height="1.25" transform="translate(-60.25 147.51) rotate(-45.64)"/><rect class="cls-1" x="132.48" y="143.85" width="23.6" height="1.25" transform="translate(-59.89 146.6) rotate(-45.64)"/><rect class="cls-1" x="131.58" y="142.97" width="23.6" height="1.25" transform="translate(-59.53 145.7) rotate(-45.64)"/><rect class="cls-1" x="130.68" y="142.09" width="23.6" height="1.25" transform="translate(-59.18 144.79) rotate(-45.64)"/><rect class="cls-1" x="129.78" y="141.22" width="23.6" height="1.25" transform="translate(-58.82 143.89) rotate(-45.64)"/><rect class="cls-1" x="128.89" y="140.34" width="23.6" height="1.25" transform="translate(-58.46 142.98) rotate(-45.64)"/><rect class="cls-1" x="127.54" y="138.4" width="23.6" height="2.51" transform="translate(-57.93 141.62) rotate(-45.64)"/><rect class="cls-1" x="125.75" y="136.64" width="23.6" height="2.51" transform="translate(-57.21 139.81) rotate(-45.64)"/><rect class="cls-1" x="123.95" y="134.89" width="23.6" height="2.51" transform="translate(-56.5 138) rotate(-45.64)"/><rect class="cls-1" x="122.16" y="133.13" width="23.6" height="2.51" transform="translate(-55.78 136.19) rotate(-45.64)"/><rect class="cls-1" x="120.37" y="131.38" width="23.6" height="2.51" transform="translate(-55.07 134.38) rotate(-45.64)"/><rect class="cls-1" x="118.57" y="129.62" width="23.6" height="2.51" transform="translate(-54.35 132.57) rotate(-45.64)"/><rect class="cls-1" x="116.78" y="127.87" width="23.6" height="2.51" transform="translate(-53.64 130.76) rotate(-45.64)"/><rect class="cls-1" x="114.99" y="126.11" width="23.6" height="2.51" transform="translate(-52.92 128.95) rotate(-45.64)"/><rect class="cls-1" x="113.19" y="124.36" width="23.6" height="2.51" transform="translate(-52.21 127.14) rotate(-45.64)"/><rect class="cls-1" x="111.4" y="122.61" width="23.6" height="2.51" transform="translate(-51.49 125.33) rotate(-45.64)"/><rect class="cls-1" x="109.6" y="120.85" width="23.6" height="2.51" transform="translate(-50.78 123.52) rotate(-45.64)"/><rect class="cls-1" x="107.81" y="119.1" width="23.6" height="2.51" transform="translate(-50.06 121.71) rotate(-45.64)"/><rect class="cls-1" x="106.02" y="117.34" width="23.6" height="2.51" transform="translate(-49.35 119.9) rotate(-45.64)"/><rect class="cls-1" x="104.22" y="115.59" width="23.6" height="2.51" transform="translate(-48.63 118.09) rotate(-45.64)"/><rect class="cls-1" x="102.43" y="113.83" width="23.6" height="2.51" transform="translate(-47.92 116.28) rotate(-45.64)"/><rect class="cls-1" x="100.63" y="112.08" width="23.6" height="2.51" transform="translate(-47.2 114.47) rotate(-45.64)"/><rect class="cls-1" x="98.84" y="110.32" width="23.6" height="2.51" transform="translate(-46.49 112.66) rotate(-45.64)"/><rect class="cls-1" x="97.05" y="108.57" width="23.6" height="2.51" transform="translate(-45.78 110.85) rotate(-45.64)"/><rect class="cls-1" x="95.25" y="106.81" width="23.6" height="2.51" transform="translate(-45.06 109.04) rotate(-45.64)"/><rect class="cls-1" x="93.46" y="105.06" width="23.6" height="2.51" transform="translate(-44.35 107.23) rotate(-45.64)"/><rect class="cls-1" x="91.66" y="103.31" width="23.6" height="2.51" transform="translate(-43.63 105.42) rotate(-45.64)"/><rect class="cls-1" x="89.87" y="101.55" width="23.6" height="2.51" transform="translate(-42.92 103.61) rotate(-45.64)"/><rect class="cls-1" x="88.08" y="99.8" width="23.6" height="2.51" transform="translate(-42.2 101.8) rotate(-45.64)"/><rect class="cls-1" x="86.28" y="98.04" width="23.6" height="2.51" transform="translate(-41.49 99.99) rotate(-45.64)"/><rect class="cls-1" x="84.49" y="96.29" width="23.6" height="2.51" transform="translate(-40.77 98.18) rotate(-45.64)"/><rect class="cls-1" x="82.69" y="94.53" width="23.6" height="2.51" transform="translate(-40.06 96.37) rotate(-45.64)"/><rect class="cls-1" x="80.9" y="92.78" width="23.6" height="2.51" transform="translate(-39.34 94.56) rotate(-45.64)"/><rect class="cls-1" x="79.11" y="91.02" width="23.6" height="2.51" transform="translate(-38.63 92.75) rotate(-45.64)"/><rect class="cls-1" x="77.31" y="89.27" width="23.6" height="2.51" transform="translate(-37.91 90.94) rotate(-45.64)"/><rect class="cls-1" x="75.52" y="87.52" width="23.6" height="2.51" transform="translate(-37.2 89.13) rotate(-45.64)"/><rect class="cls-1" x="73.73" y="85.76" width="23.6" height="2.51" transform="translate(-36.48 87.32) rotate(-45.64)"/><rect class="cls-1" x="71.93" y="84.01" width="23.6" height="2.51" transform="translate(-35.77 85.51) rotate(-45.64)"/><rect class="cls-1" x="70.14" y="82.25" width="23.6" height="2.51" transform="translate(-35.05 83.7) rotate(-45.64)"/><rect class="cls-1" x="68.34" y="80.5" width="23.6" height="2.51" transform="translate(-34.34 81.89) rotate(-45.64)"/><rect class="cls-1" x="66.55" y="78.74" width="23.6" height="2.51" transform="translate(-33.62 80.08) rotate(-45.64)"/><rect class="cls-1" x="64.76" y="76.99" width="23.6" height="2.51" transform="translate(-32.91 78.27) rotate(-45.64)"/><rect class="cls-1" x="62.96" y="75.23" width="23.6" height="2.51" transform="translate(-32.2 76.46) rotate(-45.64)"/><rect class="cls-1" x="61.17" y="73.48" width="23.6" height="2.51" transform="translate(-31.48 74.65) rotate(-45.64)"/><rect class="cls-1" x="59.37" y="71.73" width="23.6" height="2.51" transform="translate(-30.77 72.84) rotate(-45.64)"/><rect class="cls-1" x="57.58" y="69.97" width="23.6" height="2.51" transform="translate(-30.05 71.03) rotate(-45.64)"/><rect class="cls-1" x="55.79" y="68.22" width="23.6" height="2.51" transform="translate(-29.34 69.22) rotate(-45.64)"/><rect class="cls-1" x="53.99" y="66.46" width="23.6" height="2.51" transform="translate(-28.62 67.41) rotate(-45.64)"/><rect class="cls-1" x="52.2" y="64.71" width="23.6" height="2.51" transform="translate(-27.91 65.59) rotate(-45.64)"/><rect class="cls-1" x="50.4" y="62.95" width="23.6" height="2.51" transform="translate(-27.19 63.78) rotate(-45.64)"/><rect class="cls-1" x="48.61" y="61.2" width="23.6" height="2.51" transform="translate(-26.48 61.97) rotate(-45.64)"/><rect class="cls-1" x="46.82" y="59.44" width="23.6" height="2.51" transform="translate(-25.76 60.16) rotate(-45.64)"/><rect class="cls-1" x="45.02" y="57.69" width="23.6" height="2.51" transform="translate(-25.05 58.35) rotate(-45.64)"/><rect class="cls-1" x="43.23" y="55.94" width="23.6" height="2.51" transform="translate(-24.33 56.54) rotate(-45.64)"/><rect class="cls-1" x="41.43" y="54.18" width="23.6" height="2.51" transform="translate(-23.62 54.73) rotate(-45.64)"/><rect class="cls-1" x="39.64" y="52.43" width="23.6" height="2.51" transform="translate(-22.9 52.92) rotate(-45.64)"/><rect class="cls-1" x="37.85" y="50.67" width="23.6" height="2.51" transform="translate(-22.19 51.11) rotate(-45.64)"/><rect class="cls-1" x="36.05" y="48.92" width="23.6" height="2.51" transform="translate(-21.47 49.3) rotate(-45.64)"/><rect class="cls-1" x="34.26" y="47.16" width="23.6" height="2.51" transform="translate(-20.76 47.49) rotate(-45.64)"/><rect class="cls-1" x="32.47" y="45.41" width="23.6" height="2.51" transform="translate(-20.05 45.68) rotate(-45.64)"/><rect class="cls-1" x="30.67" y="43.65" width="23.6" height="2.51" transform="translate(-19.33 43.87) rotate(-45.64)"/><rect class="cls-1" x="28.88" y="41.9" width="23.6" height="2.51" transform="translate(-18.62 42.06) rotate(-45.64)"/><rect class="cls-1" x="27.08" y="40.14" width="23.6" height="2.51" transform="translate(-17.9 40.25) rotate(-45.64)"/><rect class="cls-1" x="25.29" y="38.39" width="23.6" height="2.51" transform="translate(-17.19 38.44) rotate(-45.64)"/><rect class="cls-1" x="23.5" y="36.64" width="23.6" height="2.51" transform="translate(-16.47 36.63) rotate(-45.64)"/><rect class="cls-1" x="21.7" y="34.88" width="23.6" height="2.51" transform="translate(-15.76 34.82) rotate(-45.64)"/><rect class="cls-1" x="19.91" y="33.13" width="23.6" height="2.51" transform="translate(-15.04 33.01) rotate(-45.64)"/><rect class="cls-1" x="18.11" y="31.37" width="23.6" height="2.51" transform="translate(-14.33 31.2) rotate(-45.64)"/><rect class="cls-1" x="16.32" y="29.62" width="23.6" height="2.51" transform="translate(-13.61 29.39) rotate(-45.64)"/><rect class="cls-1" x="14.53" y="27.86" width="23.6" height="2.51" transform="translate(-12.9 27.58) rotate(-45.64)"/><polygon class="cls-1" points="17.18 36.68 0 19.88 0 1.49 14.96 1.49 33.68 19.8 17.18 36.68"/></g><path class="cls-1" d="M221.72,73.33q-5,5.57-15.56,5.56-7.83,0-12.72-3.36a17.44,17.44,0,0,1-6.81-9.33,42.71,42.71,0,0,1-2.16-12.44q-.22-6.76-.23-13.37,0-6.09.29-11.65a68.19,68.19,0,0,1,1.3-10.49,35.2,35.2,0,0,1,2.5-7.55A18.39,18.39,0,0,1,192.48,5a18.14,18.14,0,0,1,6.13-3.67A24.32,24.32,0,0,1,207,0a25.09,25.09,0,0,1,8.63,1.33,15.35,15.35,0,0,1,6,3.77A15.55,15.55,0,0,1,225,11a24.33,24.33,0,0,1,1.14,7.65v1.89H221.6V19a23.72,23.72,0,0,0-.73-6,12.42,12.42,0,0,0-2.45-4.88,11.73,11.73,0,0,0-4.54-3.25A17.57,17.57,0,0,0,207,3.67q-6.93,0-10.74,3.63a21,21,0,0,0-5.5,10.24,53.78,53.78,0,0,0-1.54,10.61q-.28,5.67-.28,12.19,0,3.36.06,6.88c0,2.35.13,4.67.28,7a50.29,50.29,0,0,0,.85,6.61,28.35,28.35,0,0,0,1.76,5.78,14.78,14.78,0,0,0,5.23,6.31q3.4,2.31,9.19,2.31A19.27,19.27,0,0,0,213.71,74a12.14,12.14,0,0,0,4.88-3.57,14.66,14.66,0,0,0,2.73-5.4,25.35,25.35,0,0,0,.85-6.77V57.07h4.54v1Q226.71,67.77,221.72,73.33Z"/><path class="cls-1" d="M281.56,77.42l-6.81-21H243.07l-6.93,21h-4.43l25-75.85h4.77l24.76,75.85ZM259,6.92,244.32,52.77h29.07Z"/><path class="cls-1" d="M330.93,77.42a14,14,0,0,1-.39-1.68c-.11-.63-.24-1.41-.39-2.36s-.25-2.13-.33-3.56-.11-3.24-.11-5.41c0-1.61,0-3.14-.11-4.61s-.15-2.9-.23-4.3q-.22-4.3-.62-7.4A11,11,0,0,0,326.87,43a8.66,8.66,0,0,0-4.42-3,26.88,26.88,0,0,0-8.29-1H302v38.5h-4.42V1.57H315.8q10.54,0,14.8,4.3t4.26,13.3q0,8.17-2.84,12.37t-10,5.65A15,15,0,0,1,328.31,39a8.69,8.69,0,0,1,3.28,3.46A13.34,13.34,0,0,1,333,47.12c.19,1.71.36,3.48.51,5.3.15,2,.23,4,.23,5.94s0,3.9.11,5.93q.12,3.36.34,6.57a51.88,51.88,0,0,0,.91,6.56Zm-.54-58.27q0-7.53-3.29-10.72T316.2,5.25H302v30h9.66a51.9,51.9,0,0,0,8.8-.63,12.66,12.66,0,0,0,5.79-2.4,9.75,9.75,0,0,0,3.18-4.92A28.49,28.49,0,0,0,330.39,19.15Z"/><path class="cls-1" d="M352.08,77.42V1.57H385V5.25H356.51V36.93H384V40.6H356.51V73.75h29.3v3.67Z"/><path class="cls-1" d="M223.82,145a34.75,34.75,0,0,1-1.08,9.23,14.57,14.57,0,0,1-3.5,6.4,14.43,14.43,0,0,1-6.38,3.72,33.84,33.84,0,0,1-9.82,1.21H184.87V89.7h17.66q10.75,0,15.17,4.56t4.41,14.32a22.22,22.22,0,0,1-2.62,11.33q-2.61,4.52-9.67,6.19,7.89,1.47,11,6T223.82,145Zm-6.14-36.51c0-5.53-1.25-9.42-3.76-11.7s-6.61-3.41-12.31-3.41H189.29v31.05h13.12a19.83,19.83,0,0,0,7.18-1.15,11.52,11.52,0,0,0,4.73-3.25,13.08,13.08,0,0,0,2.57-5A24.79,24.79,0,0,0,217.68,108.48ZM219.39,145q0-8.4-3.69-12.64t-12.78-4.25H189.29v33.78h12.27a37,37,0,0,0,8.17-.79,12.26,12.26,0,0,0,5.57-2.73,10.93,10.93,0,0,0,3.12-5.19A29.41,29.41,0,0,0,219.39,145Z"/><path class="cls-1" d="M273,165.55a14.12,14.12,0,0,1-.38-1.68c-.11-.63-.24-1.42-.39-2.36a34,34,0,0,1-.33-3.57c-.08-1.43-.11-3.23-.11-5.4q0-2.41-.12-4.62c-.07-1.46-.15-2.9-.22-4.3-.16-2.86-.36-5.33-.63-7.39a11,11,0,0,0-1.87-5.14,8.7,8.7,0,0,0-4.43-3.05,27.2,27.2,0,0,0-8.29-1H244v38.5H239.6V89.7h18.23q10.53,0,14.8,4.3t4.26,13.3q0,8.17-2.84,12.36t-10,5.66a15,15,0,0,1,6.28,1.78,8.8,8.8,0,0,1,3.29,3.47,13.34,13.34,0,0,1,1.35,4.67c.19,1.72.36,3.49.52,5.31q.22,3,.22,5.93t.12,5.94q.1,3.36.34,6.56a50,50,0,0,0,.91,6.57Zm-.53-58.27q0-7.53-3.29-10.72t-10.91-3.19H244v30h9.65a51.82,51.82,0,0,0,8.8-.63,12.56,12.56,0,0,0,5.79-2.4,9.79,9.79,0,0,0,3.18-4.92A28.14,28.14,0,0,0,272.42,107.28Z"/><path class="cls-1" d="M294.11,165.55V89.7h4.43v75.85Z"/><path class="cls-1" d="M332.26,93.37v72.18h-4.43V93.37h-19V89.7h42.36v3.67Z"/><path class="cls-1" d="M398,165.55l-6.81-21H359.52l-6.93,21h-4.43l25-75.85h4.77l24.76,75.85Zm-22.59-70.5L360.77,140.9h29.07Z"/><path class="cls-1" d="M454.23,165.55l-36-71.86v71.86H414V89.7h7l36.11,71.86V89.7h4.09v75.85Z"/><path class="cls-1" d="M520.77,165.55l-36-71.86v71.86h-4.2V89.7h7l36.11,71.86V89.7h4.09v75.85Z"/><path class="cls-1" d="M547.12,165.55V89.7h4.43v75.85Z"/><path class="cls-1" d="M605.71,161.46q-5,5.55-15.55,5.56-7.85,0-12.72-3.36a17.48,17.48,0,0,1-6.82-9.34,43,43,0,0,1-2.16-12.43q-.23-6.76-.22-13.37,0-6.09.28-11.65a69.43,69.43,0,0,1,1.31-10.49,34,34,0,0,1,2.5-7.55,18.4,18.4,0,0,1,4.14-5.72,18.08,18.08,0,0,1,6.13-3.67A24.12,24.12,0,0,1,591,88.13a25.3,25.3,0,0,1,8.63,1.32A14.79,14.79,0,0,1,609,99.14a24.69,24.69,0,0,1,1.13,7.66v1.89H605.6v-1.58a23.64,23.64,0,0,0-.74-6,12.27,12.27,0,0,0-2.44-4.88A11.7,11.7,0,0,0,597.88,93,17.62,17.62,0,0,0,591,91.8q-6.93,0-10.73,3.62a21,21,0,0,0-5.51,10.25,54.55,54.55,0,0,0-1.53,10.61q-.28,5.67-.29,12.19,0,3.36.06,6.88t.28,7a52.18,52.18,0,0,0,.86,6.62,27.92,27.92,0,0,0,1.76,5.78,14.86,14.86,0,0,0,5.22,6.3c2.27,1.54,5.34,2.32,9.2,2.32a19.34,19.34,0,0,0,7.44-1.26,12.27,12.27,0,0,0,4.88-3.57,14.66,14.66,0,0,0,2.73-5.4,25.77,25.77,0,0,0,.85-6.77V145.2h4.54v1.05Q610.71,155.9,605.71,161.46Z"/><path class="cls-1" d="M665.56,165.55l-6.81-21H627.06l-6.92,21h-4.43l25-75.85h4.77l24.76,75.85ZM643,95.05,628.31,140.9h29.07Z"/></svg>