<svg id="Layer_1" data-name="Layer 1" xmlns="http://www.w3.org/2000/svg" viewBox="0 0 492.52 138.08"><defs><style>.cls-1{fill:#cd992b;}.cls-2{fill:#005e5c;}</style></defs><title>mfzalogo</title><path class="cls-1" d="M73.27,74.83V54.64a14.46,14.46,0,0,1,6.19-10.41l7.14-4.1,15.54-8.92,15.14-8.69c3.85-2.21,8-4,11.1-7.28a26.85,26.85,0,0,0,5.79-9.42C134.38,5.3,135.78,0,135.76,0h2.16V27s0,10.08-8.11,15Z"/><path class="cls-1" d="M81.79,85.73l56.13-32.48V70.73s0.12,9.5-7.73,13.83l-43,24.85A24.73,24.73,0,0,0,77.92,121a14.92,14.92,0,0,0-.86,5.08v12H73.27V102c0-.21,0-0.41,0-0.61a18,18,0,0,1,8-15.31c0.17-.12.35-0.23,0.53-0.33"/><path class="cls-1" d="M64.65,74.83V54.64a14.46,14.46,0,0,0-6.19-10.41l-7.14-4.1L35.77,31.21,20.62,22.52c-3.85-2.21-8-4-11.1-7.28A26.85,26.85,0,0,1,3.73,5.81C3.54,5.3,2.14,0,2.16,0H0V27s0,10.08,8.12,15Z"/><path class="cls-1" d="M56.13,85.73L0,53.24V70.73s-0.12,9.5,7.73,13.83l43,24.85A24.73,24.73,0,0,1,60,121a14.92,14.92,0,0,1,.86,5.08v12h3.79V102c0-.21,0-0.41,0-0.61a18,18,0,0,0-8-15.31c-0.17-.12-0.35-0.23-0.53-0.33"/><polygon class="cls-2" points="288.4 96.96 298.1 96.96 298.1 72.92 319.52 72.92 319.52 66.33 298.1 66.33 298.1 52.41 323.04 52.41 323.04 45.19 288.4 45.19 288.4 96.96"/><polygon class="cls-2" points="390.69 45.19 390.69 52.41 418.34 52.41 387.63 96.63 387.4 96.96 434.24 96.96 434.24 89.75 403.94 89.75 434.61 45.19 390.69 45.19"/><polygon class="cls-2" points="351.38 45.19 329.61 96.67 329.48 96.96 336.37 96.96 352.78 58.52 370.69 96.96 381.16 96.96 357.05 45.19 351.38 45.19"/><polygon class="cls-2" points="252.16 45.19 230.4 96.67 230.27 96.96 237.16 96.96 253.56 58.52 271.48 96.96 281.95 96.96 257.84 45.19 252.16 45.19"/><polygon class="cls-2" points="218.5 45.19 211.62 45.19 195.21 83.63 177.29 45.19 166.82 45.19 166.82 96.96 174.53 96.96 174.53 61.74 190.93 96.96 196.61 96.96 212.8 58.68 212.8 96.96 222.5 96.96 222.5 45.19 218.5 45.19"/><polygon class="cls-2" points="468.41 45.19 462.73 45.19 440.97 96.67 440.84 96.96 447.73 96.96 464.13 58.52 482.05 96.96 492.52 96.96 468.41 45.19"/><rect class="cls-2" x="193.4" y="116.77" width="3.92" height="20.83"/><polygon class="cls-2" points="218.77 131.35 205.77 116.85 205.69 116.77 203.41 116.77 203.41 137.6 205.45 137.6 205.45 121.84 219.55 138 219.63 138.08 220.78 138.08 220.78 116.77 218.77 116.77 218.77 131.35"/><polygon class="cls-2" points="235.9 132.57 228.48 116.91 228.41 116.77 224.24 116.77 234.32 137.94 234.39 138.08 235.59 138.08 245.06 116.77 242.88 116.77 235.9 132.57"/><polygon class="cls-2" points="248.5 137.6 263.13 137.6 263.13 135.78 252.42 135.78 252.42 127.17 259.58 127.17 259.58 125.34 252.42 125.34 252.42 118.59 263.13 118.59 263.13 116.77 248.5 116.77 248.5 137.6"/><path class="cls-2" d="M279.14,128.27a11.2,11.2,0,0,0-1.88-1.37c-0.67-.4-1.38-0.8-2.11-1.19L273,124.59a13.44,13.44,0,0,1-1.8-1.12,6,6,0,0,1-1.25-1.21,2.13,2.13,0,0,1-.45-1.31,2.45,2.45,0,0,1,.22-1,2.54,2.54,0,0,1,.66-0.89,3.36,3.36,0,0,1,1.11-.65,4.58,4.58,0,0,1,1.6-.26,5.63,5.63,0,0,1,1.85.29,4.58,4.58,0,0,1,1.44.81,5,5,0,0,1,1.08,1.27,7.69,7.69,0,0,1,.76,1.65l0.09,0.27,2.22-1-0.07-.22a7,7,0,0,0-2.51-3.63,7.92,7.92,0,0,0-4.71-1.26,9.15,9.15,0,0,0-2.92.43,6.47,6.47,0,0,0-2.17,1.2,5.06,5.06,0,0,0-1.35,1.82,5.68,5.68,0,0,0-.46,2.27,4.55,4.55,0,0,0,.51,2.18,6.44,6.44,0,0,0,1.31,1.69,10.64,10.64,0,0,0,1.83,1.35c0.69,0.4,1.38.78,2.07,1.14l2,1.07a11,11,0,0,1,1.74,1.12,5.55,5.55,0,0,1,1.21,1.27,2.63,2.63,0,0,1,.44,1.51,2.41,2.41,0,0,1-.31,1.23,3.07,3.07,0,0,1-.85.92,4,4,0,0,1-1.24.57,5.59,5.59,0,0,1-3.22-.07,5,5,0,0,1-1.53-.79,5.23,5.23,0,0,1-1.21-1.27,6.72,6.72,0,0,1-.83-1.71l-0.09-.26-2.32,1,0.09,0.23a8.72,8.72,0,0,0,1.07,2.07,6.38,6.38,0,0,0,1.57,1.57,7,7,0,0,0,2.11,1,11.3,11.3,0,0,0,5.93-.14,7.17,7.17,0,0,0,2.38-1.3,5.36,5.36,0,0,0,1.44-1.94A5.9,5.9,0,0,0,281,132a4.12,4.12,0,0,0-.53-2.06,6.93,6.93,0,0,0-1.35-1.66"/><polygon class="cls-2" points="283.88 118.59 291.25 118.59 291.25 137.6 295.17 137.6 295.17 118.59 302.52 118.59 302.52 116.77 283.88 116.77 283.88 118.59"/><polygon class="cls-2" points="318.38 132.21 310.62 116.91 310.55 116.77 306.65 116.77 306.65 137.6 308.66 137.6 308.66 121.43 316.84 137.46 316.91 137.6 317.93 137.6 325.96 121.56 325.96 137.6 329.9 137.6 329.9 116.77 326.06 116.77 318.38 132.21"/><polygon class="cls-2" points="335.99 137.6 350.62 137.6 350.62 135.78 339.91 135.78 339.91 127.17 347.07 127.17 347.07 125.34 339.91 125.34 339.91 118.59 350.62 118.59 350.62 116.77 335.99 116.77 335.99 137.6"/><polygon class="cls-2" points="370.75 131.35 357.75 116.85 357.67 116.77 355.39 116.77 355.39 137.6 357.43 137.6 357.43 121.84 371.53 138 371.61 138.08 372.77 138.08 372.77 116.77 370.75 116.77 370.75 131.35"/><polygon class="cls-2" points="376.88 118.59 384.25 118.59 384.25 137.6 388.17 137.6 388.17 118.59 395.53 118.59 395.53 116.77 376.88 116.77 376.88 118.59"/><polygon class="cls-2" points="413.82 116.77 409.89 116.77 409.89 137.6 424.04 137.6 424.04 135.78 413.82 135.78 413.82 116.77"/><polygon class="cls-2" points="431.8 116.77 427.87 116.77 427.87 137.6 442.02 137.6 442.02 135.78 431.8 135.78 431.8 116.77"/><path class="cls-2" d="M464.07,131.3l-0.13.25a9.64,9.64,0,0,1-1.08,1.66,9,9,0,0,1-1.48,1.46,8,8,0,0,1-1.79,1,5.06,5.06,0,0,1-2,.4,8.58,8.58,0,0,1-3.24-.6,7.39,7.39,0,0,1-2.58-1.73,8.1,8.1,0,0,1-1.71-2.78,11.43,11.43,0,0,1,0-7.5,8.43,8.43,0,0,1,1.74-2.82,7.58,7.58,0,0,1,2.58-1.78,8.23,8.23,0,0,1,3.2-.62,5.67,5.67,0,0,1,3.47,1.1,10.08,10.08,0,0,1,2.78,3.53l0.13,0.26,1.91-1.29-0.12-.21a13.66,13.66,0,0,0-1.53-2,10.56,10.56,0,0,0-2.06-1.71,10.9,10.9,0,0,0-2.55-1.19,12.25,12.25,0,0,0-9.16,1.08,11,11,0,0,0-2.32,1.74,10.56,10.56,0,0,0-1.74,2.23,10.84,10.84,0,0,0-1.09,2.6,10.87,10.87,0,0,0,1.06,8.27,10.54,10.54,0,0,0,1.7,2.21,10.64,10.64,0,0,0,2.28,1.71,12.11,12.11,0,0,0,2.8,1.1,12.94,12.94,0,0,0,3.23.39,10.93,10.93,0,0,0,3.24-.45,10.59,10.59,0,0,0,2.61-1.19,9.84,9.84,0,0,0,2-1.71,14.34,14.34,0,0,0,1.51-2l0.13-.22Z"/></svg>